<svg xmlns="http://www.w3.org/2000/svg" width="32" height="32" viewBox="0 0 32 32">
  <g id="Grupo_19" data-name="Grupo 19" transform="translate(-637 -3296)">
    <circle id="Elipse_6" data-name="Elipse 6" cx="16" cy="16" r="16" transform="translate(637 3296)" fill="#fff"/>
    <g id="Grupo_15" data-name="Grupo 15" transform="translate(647 3306)">
      <g id="Grupo_14" data-name="Grupo 14">
        <path id="Caminho_12" data-name="Caminho 12" d="M505.2,2511.148c-.9,0-1.8,0-2.695,0a3.6,3.6,0,0,1-3.6-3.134,3.893,3.893,0,0,1-.033-.53q0-2.679,0-5.359a3.61,3.61,0,0,1,3.663-3.639c1.8.005,3.6,0,5.4,0a3.589,3.589,0,0,1,3.519,2.844,3.365,3.365,0,0,1,.078.7q.011,2.775,0,5.552a3.594,3.594,0,0,1-3.555,3.561C507.054,2511.153,506.127,2511.148,505.2,2511.148Zm5.252-6.328c0-.9,0-1.8,0-2.708a2.517,2.517,0,0,0-2.532-2.543q-2.709,0-5.417,0a2.519,2.519,0,0,0-2.54,2.551q0,2.7,0,5.4a2.5,2.5,0,0,0,2.489,2.537q2.752.026,5.506,0a2.5,2.5,0,0,0,2.494-2.545C510.456,2506.616,510.452,2505.719,510.452,2504.82Z" transform="translate(-498.87 -2498.485)" fill="#0095d9"/>
        <path id="Caminho_13" data-name="Caminho 13" d="M501.054,2503.9a3.244,3.244,0,1,1,3.212,3.249A3.238,3.238,0,0,1,501.054,2503.9Zm3.225,2.159a2.152,2.152,0,1,0-2.141-2.153A2.151,2.151,0,0,0,504.279,2506.059Z" transform="translate(-497.958 -2497.575)" fill="#0095d9"/>
        <path id="Caminho_14" data-name="Caminho 14" d="M505.952,2501.542a.778.778,0,0,1-.777-.8.782.782,0,1,1,.777.8Z" transform="translate(-496.237 -2497.86)" fill="#0095d9"/>
      </g>
    </g>
  </g>
</svg>
