<svg xmlns="http://www.w3.org/2000/svg" width="32" height="32" viewBox="0 0 32 32">
  <g id="Grupo_22" data-name="Grupo 22" transform="translate(-804 -3296)">
    <circle id="Elipse_9" data-name="Elipse 9" cx="16" cy="16" r="16" transform="translate(804 3296)" fill="#fff"/>
    <path id="Caminho_15" data-name="Caminho 15" d="M461.076,2500.9v9.163a3.473,3.473,0,0,1-.491,1.139,3.053,3.053,0,0,1-1.87,1.222h-9.165c-.066-.021-.132-.042-.2-.06a2.964,2.964,0,0,1-2.188-2.859c.031-2.721.008-5.442.009-8.162a2.871,2.871,0,0,1,2.82-2.821q4.138,0,8.278,0a2.75,2.75,0,0,1,1.782.663A3.061,3.061,0,0,1,461.076,2500.9Zm-8.06,5.446c0,.955.008,1.912,0,2.868,0,.229.071.293.29.284.361-.017.725-.016,1.087,0,.226.009.292-.077.29-.295-.009-.949,0-1.9,0-2.847a2.147,2.147,0,0,1,.05-.481,1.21,1.21,0,0,1,1.2-1.013,1.14,1.14,0,0,1,1.095,1.032,2.26,2.26,0,0,1,.042.459c0,.949,0,1.9,0,2.845,0,.215.056.309.287.3.378-.014.756-.012,1.134,0,.2.008.246-.071.245-.256-.008-1.166,0-2.329-.006-3.495a4.08,4.08,0,0,0-.067-.873,1.975,1.975,0,0,0-2.014-1.661,2.152,2.152,0,0,0-1.8.834c-.03.039-.049.113-.116.088s-.046-.092-.046-.143c0-.169-.011-.341,0-.508.011-.2-.069-.281-.268-.278-.378.008-.756.011-1.134,0-.205-.007-.263.072-.262.271C453.021,2504.431,453.016,2505.388,453.016,2506.345Zm-1.238,0c0-.963,0-1.926,0-2.889,0-.191-.063-.26-.253-.255-.378.01-.756.006-1.132,0-.19,0-.281.058-.279.265q.007,2.889,0,5.778c0,.177.063.251.243.247.378-.008.756-.013,1.132,0,.218.008.293-.053.29-.282C451.772,2508.26,451.779,2507.305,451.779,2506.35Zm-1.8-4.933a.977.977,0,0,0,.977.988,1.012,1.012,0,0,0,.974-1.005.973.973,0,0,0-.979-.96A.949.949,0,0,0,449.983,2501.417Z" transform="translate(365.836 806.48)" fill="#0095d9"/>
  </g>
</svg>
