<svg xmlns="http://www.w3.org/2000/svg" width="32" height="32" viewBox="0 0 32 32">
  <g id="Grupo_21" data-name="Grupo 21" transform="translate(-748 -3296)">
    <circle id="Elipse_8" data-name="Elipse 8" cx="16" cy="16" r="16" transform="translate(748 3296)" fill="#fff"/>
    <g id="Grupo_18" data-name="Grupo 18" transform="translate(757 3307)">
      <g id="Grupo_17" data-name="Grupo 17">
        <path id="Caminho_16" data-name="Caminho 16" d="M477.085,2504.819v-2.16c.054-.033.027-.087.029-.131a18.057,18.057,0,0,1,.2-2.044,2.073,2.073,0,0,1,.738-1.328,2.3,2.3,0,0,1,1.233-.433c1-.113,2-.145,3-.174q2.676-.079,5.351.03a21.73,21.73,0,0,1,2.483.2,1.893,1.893,0,0,1,1.617,1.47,9.972,9.972,0,0,1,.224,1.659,25.5,25.5,0,0,1,.031,3.09,14.254,14.254,0,0,1-.23,2.157,1.847,1.847,0,0,1-1.577,1.56,15.177,15.177,0,0,1-2.119.187c-1.39.062-2.78.089-4.17.07a42.683,42.683,0,0,1-4.818-.238,1.905,1.905,0,0,1-1.72-1.537,11.442,11.442,0,0,1-.219-1.806A2.357,2.357,0,0,0,477.085,2504.819Z" transform="translate(-477.085 -2498.515)" fill="#0095d9"/>
        <path id="Caminho_17" data-name="Caminho 17" d="M482.166,2501.059v4.466l3.877-2.233Z" transform="translate(-476.176 -2498.061)" fill="#fff"/>
        <g id="Grupo_16" data-name="Grupo 16" transform="translate(5.99 2.998)">
          <path id="Caminho_18" data-name="Caminho 18" d="M482.166,2501.059l3.877,2.233-3.877,2.233Z" transform="translate(-482.166 -2501.059)" fill="#fff"/>
        </g>
      </g>
    </g>
  </g>
</svg>
