<svg xmlns="http://www.w3.org/2000/svg" width="176.478" height="26.723" viewBox="0 0 176.478 26.723">
  <path id="logo" d="M39.647,14.8a3.639,3.639,0,0,1-2.987,1.515,3.217,3.217,0,0,1-3.268-3.333,3.218,3.218,0,0,1,3.192-3.357,3.822,3.822,0,0,1,3.064,1.515Zm0-7.07a5.521,5.521,0,0,0-3.5-1.136,6.177,6.177,0,0,0-6.076,6.387,6.53,6.53,0,0,0,1.582,4.293,6.259,6.259,0,0,0,4.674,2.071,5.21,5.21,0,0,0,3.447-1.238v.985h3.191V2.8H39.648V7.733Zm8.911.353V6.849H45.367V19.1h3.32v-7.7A3.674,3.674,0,0,1,51.7,9.627a4.712,4.712,0,0,1,1.2.125L53.282,6.7a6.78,6.78,0,0,0-1.124-.1,4.659,4.659,0,0,0-3.6,1.49m8.221,3.308a2.676,2.676,0,0,1,2.655-2.147,2.459,2.459,0,0,1,2.451,2.147H56.779Zm2.655-4.8c-3.677,0-6.025,2.979-6.025,6.388a6.159,6.159,0,0,0,6.485,6.363,6.751,6.751,0,0,0,5.081-2.2l-1.889-1.869A4.4,4.4,0,0,1,59.971,16.7a3.238,3.238,0,0,1-3.345-2.9h8.579a5.406,5.406,0,0,0,.077-.935A5.974,5.974,0,0,0,59.434,6.6ZM75.878,14.8a3.642,3.642,0,0,1-2.988,1.515,3.217,3.217,0,0,1-3.267-3.333,3.218,3.218,0,0,1,3.192-3.357,3.827,3.827,0,0,1,3.064,1.515Zm.128-6.969A5.714,5.714,0,0,0,72.379,6.6,6.177,6.177,0,0,0,66.3,12.983a6.53,6.53,0,0,0,1.582,4.293,6.255,6.255,0,0,0,4.672,2.071,5.212,5.212,0,0,0,3.448-1.238v.985H79.2V6.849H76.005ZM96.686,6.6a6.171,6.171,0,0,0-4.391,1.92A5.421,5.421,0,0,0,88.132,6.6a4.948,4.948,0,0,0-3.343,1.237V6.849H81.6V19.1h3.319V11.142A3.835,3.835,0,0,1,87.8,9.626a2.5,2.5,0,0,1,1.864.757,2.851,2.851,0,0,1,.613,2.1V19.1H93.6V12.606a10.509,10.509,0,0,0-.1-1.363,3.876,3.876,0,0,1,2.988-1.616,2.5,2.5,0,0,1,1.863.757,2.855,2.855,0,0,1,.613,2.1V19.1h3.319V12.606a6.027,6.027,0,0,0-1.252-4.04,5.672,5.672,0,0,0-4.34-1.97m14.092.986h-3.136V7.528a3.774,3.774,0,0,1,.536-2.4,2.648,2.648,0,0,1,2.272-1.086,3.273,3.273,0,0,1,.868.1l.282-1.338a5.464,5.464,0,0,0-1.124-.127,4.255,4.255,0,0,0-3.319,1.414,5.12,5.12,0,0,0-.97,3.509V7.581h-3.012V8.945h3.012V19.1h1.456V8.945h3.137V7.581Zm9.932,7.877a4.843,4.843,0,0,1-4.162,2.524,4.652,4.652,0,0,1-2.629-.858,4.583,4.583,0,0,1-1.838-3.787,4.694,4.694,0,0,1,1.632-3.662,4.531,4.531,0,0,1,2.81-.985,5.135,5.135,0,0,1,4.187,2.323Zm.052-6.287A5.7,5.7,0,0,0,116.5,7.329a5.96,5.96,0,0,0-3.7,1.288,6.113,6.113,0,0,0-2.171,4.721,5.9,5.9,0,0,0,2.477,4.924,5.959,5.959,0,0,0,3.472,1.086,5.156,5.156,0,0,0,4.188-1.945V19.1h1.4V7.581h-1.4V9.172Zm9.65,8.811a4.647,4.647,0,1,1-.2-9.292,5.01,5.01,0,0,1,3.523,1.466l.919-1.035a6.121,6.121,0,0,0-4.442-1.794,5.964,5.964,0,0,0-6.026,6.01,6.033,6.033,0,0,0,6.256,6.009,6.183,6.183,0,0,0,4.6-2l-1.046-.959a4.88,4.88,0,0,1-3.575,1.59m9.728-15.154h-1.455V7.581h-2.858V8.945h2.858v6.262a4.216,4.216,0,0,0,.791,2.828,3.936,3.936,0,0,0,3.115,1.313,5.7,5.7,0,0,0,1.507-.2l-.256-1.314a4.66,4.66,0,0,1-1.251.152,2.4,2.4,0,0,1-1.941-.807,2.8,2.8,0,0,1-.51-1.919V8.945H144.1V7.581h-3.958V2.829Zm10.287,15.154a4.516,4.516,0,0,1-4.546-4.645,4.546,4.546,0,1,1,9.089,0,4.514,4.514,0,0,1-4.545,4.645m0-10.655a5.912,5.912,0,0,0-6,6.01,6,6,0,1,0,12,0,5.912,5.912,0,0,0-6-6.01m9.345,2V7.582h-1.456V19.1h1.456V11.473a4.055,4.055,0,0,1,3.651-2.55c.071,0,.482,0,.657.021l-.687-1.381a4.482,4.482,0,0,0-3.621,1.763m15.15-1.744-4.111,8.938-.731-1.5-.805-1.65-2.829-5.791h-1.634l4.514,9.081.746,1.5-3.192,6.993h1.532l8.068-17.572ZM26.453,24.877a1.845,1.845,0,1,0-1.844,1.846,1.845,1.845,0,0,0,1.844-1.846m-5.034-6.592a3.409,3.409,0,1,0-3.408,3.406,3.407,3.407,0,0,0,3.408-3.406M15.83,9.923a6.188,6.188,0,1,0-6.189,6.183A6.185,6.185,0,0,0,15.83,9.923M12.991,25.96a12.98,12.98,0,1,1,12.991-12.98A12.984,12.984,0,0,1,12.991,25.96" fill="#1f1f1f" fill-rule="evenodd"/>
</svg>
